<svg width="120" height="33" viewBox="0 0 120 33" fill="none" xmlns="http://www.w3.org/2000/svg">
<g clip-path="url(#clip0_2608_419)">
<path d="M53.3612 22.0617C52.9218 22.5142 52.4661 22.9198 51.9941 23.2787C51.5221 23.6376 51.0013 23.9496 50.4317 24.2149C49.8784 24.4645 49.2681 24.6518 48.6008 24.7766C47.9335 24.917 47.1849 24.9872 46.3548 24.9872C45.1017 24.9872 43.938 24.7688 42.8639 24.3319C41.7897 23.895 40.8621 23.3021 40.0809 22.5532C39.2997 21.7886 38.6894 20.8915 38.25 19.8617C37.8105 18.8319 37.5908 17.7319 37.5908 16.5617V16.5149C37.5908 15.3447 37.8105 14.2525 38.25 13.2383C38.6894 12.2085 39.2997 11.3113 40.0809 10.5468C40.8621 9.76665 41.7979 9.15814 42.8883 8.72126C43.9787 8.26878 45.1831 8.04254 46.5013 8.04254C47.2988 8.04254 48.023 8.10495 48.674 8.22977C49.3413 8.3546 49.9435 8.52623 50.4805 8.74467C51.0176 8.96311 51.514 9.22836 51.9697 9.54041C52.4254 9.85247 52.8485 10.1957 53.2391 10.5702L50.8467 13.2149C50.1794 12.6376 49.4959 12.1851 48.7961 11.8574C48.1125 11.5298 47.3395 11.3659 46.4769 11.3659C45.7608 11.3659 45.0935 11.4986 44.4751 11.7638C43.8729 12.0291 43.3521 12.3957 42.9127 12.8638C42.4733 13.3319 42.1315 13.878 41.8874 14.5021C41.6433 15.1106 41.5212 15.7659 41.5212 16.4681V16.5149C41.5212 17.217 41.6433 17.8801 41.8874 18.5042C42.1315 19.1284 42.4651 19.6745 42.8883 20.1425C43.3277 20.6106 43.8485 20.9851 44.4507 21.2659C45.0691 21.5312 45.7445 21.6638 46.4769 21.6638C47.4534 21.6638 48.2753 21.4922 48.9426 21.1489C49.6261 20.8057 50.3015 20.3376 50.9688 19.7447L53.3612 22.0617Z" fill="white"/>
<path d="M69.4314 24.7064H65.0372L61.3753 19.4638H58.4214V24.7064H54.6619V8.32339H62.4739C64.5082 8.32339 66.0869 8.79928 67.2098 9.75105C68.3491 10.7028 68.9187 12.0291 68.9187 13.7298V13.7766C68.9187 15.1028 68.5769 16.1872 67.8934 17.0298C67.2261 17.8567 66.3473 18.4652 65.2569 18.8553L69.4314 24.7064ZM65.1104 13.9638V13.917C65.1104 13.1369 64.85 12.5518 64.3292 12.1617C63.8084 11.7716 63.0842 11.5766 62.1565 11.5766H58.4214V16.2808H62.2297C63.1574 16.2808 63.8654 16.0702 64.3536 15.6489C64.8581 15.2276 65.1104 14.6659 65.1104 13.9638Z" fill="white"/>
<path d="M83.6065 24.7064H70.5948V8.32339H83.4845V11.5298H74.3299V14.8532H82.3859V18.0596H74.3299V21.5H83.6065V24.7064Z" fill="white"/>
<path d="M102.646 16.5149C102.646 17.6851 102.418 18.7851 101.963 19.8149C101.507 20.8291 100.872 21.7262 100.059 22.5064C99.2611 23.2709 98.3009 23.8794 97.1779 24.3319C96.0712 24.7688 94.8587 24.9872 93.5405 24.9872C92.2222 24.9872 91.0097 24.7688 89.903 24.3319C88.7963 23.8794 87.8361 23.2787 87.0224 22.5298C86.2249 21.7652 85.5983 20.8759 85.1426 19.8617C84.7032 18.8319 84.4835 17.7319 84.4835 16.5617V16.5149C84.4835 15.3447 84.7113 14.2525 85.167 13.2383C85.6227 12.2085 86.2493 11.3113 87.0468 10.5468C87.8605 9.76665 88.8207 9.15814 89.9274 8.72126C91.0504 8.26878 92.271 8.04254 93.5893 8.04254C94.9076 8.04254 96.12 8.26878 97.2267 8.72126C98.3334 9.15814 99.2855 9.75885 100.083 10.5234C100.897 11.2723 101.523 12.1617 101.963 13.1915C102.418 14.2057 102.646 15.2979 102.646 16.4681V16.5149ZM98.7159 16.5617V16.5149C98.7159 15.8128 98.5857 15.1496 98.3253 14.5255C98.0812 13.9014 97.7231 13.3553 97.2511 12.8872C96.7954 12.4191 96.2502 12.0525 95.6155 11.7872C94.9808 11.5064 94.2891 11.3659 93.5405 11.3659C92.7755 11.3659 92.0757 11.4986 91.441 11.7638C90.8226 12.0291 90.2855 12.3957 89.8298 12.8638C89.3904 13.3319 89.0404 13.878 88.7801 14.5021C88.5359 15.1106 88.4139 15.7659 88.4139 16.4681V16.5149C88.4139 17.217 88.5359 17.8801 88.7801 18.5042C89.0404 19.1284 89.3985 19.6745 89.8542 20.1425C90.3262 20.6106 90.8714 20.9851 91.4898 21.2659C92.1245 21.5312 92.8244 21.6638 93.5893 21.6638C94.3379 21.6638 95.0296 21.5312 95.6643 21.2659C96.299 21.0007 96.8361 20.634 97.2755 20.1659C97.7312 19.6979 98.0812 19.1596 98.3253 18.5511C98.5857 17.9269 98.7159 17.2638 98.7159 16.5617Z" fill="white"/>
<path d="M119.457 24.7064H116.259L107.983 14.2915V24.7064H104.272V8.32339H107.739L115.746 18.4106V8.32339H119.457V24.7064Z" fill="white"/>
<path d="M8.424 31.1838L10.66 33L9.8156 31.4813C8.4835 29.0854 7.78998 26.4434 7.78998 23.7647V15.1477C7.78998 14.3949 7.92492 13.6471 8.18961 12.933C8.93035 10.9346 11.01 9.58659 13.3524 9.58659H14.1175C16.4599 9.58659 18.5395 10.9346 19.2803 12.933C19.545 13.6471 19.6799 14.3949 19.6799 15.1477V23.7647C19.6799 26.4434 18.9864 29.0854 17.6543 31.4813L16.8099 33L19.0459 31.1838C21.7367 28.9981 23.6838 26.1714 24.6615 23.0313L27.4699 14.0112H26.0349V12.274C26.0349 9.01873 24.5969 5.89679 22.0374 3.59497L21.0839 2.73753C19.1349 0.98472 16.4914 0 13.735 0C10.9785 0 8.33499 0.984736 6.38589 2.73757L5.43249 3.59497C2.87294 5.89679 1.435 9.01873 1.435 12.274V14.0112H0L2.80842 23.0313C3.78609 26.1714 5.73316 28.9981 8.424 31.1838Z" fill="white"/>
</g>
<defs>
<clipPath id="clip0_2608_419">
<rect width="120" height="33" fill="white"/>
</clipPath>
</defs>
</svg>
